<?xml version="1.0" encoding="utf-8"?>
<!-- Generator: Adobe Illustrator 27.5.0, SVG Export Plug-In . SVG Version: 6.00 Build 0)  -->
<svg version="1.1" id="Layer_1" xmlns="http://www.w3.org/2000/svg" xmlns:xlink="http://www.w3.org/1999/xlink" x="0px" y="0px"
	 viewBox="0 0 1280 1024" style="enable-background:new 0 0 1280 1024;" xml:space="preserve">
<style type="text/css">
	.st0{fill:#FFFFFF;stroke:#000000;stroke-width:4;stroke-miterlimit:10;}
	.st1{fill:#EB0009;stroke:#F40000;stroke-width:4;stroke-miterlimit:10;}
	.st2{fill:#000E73;stroke:#1600FF;stroke-width:4;stroke-miterlimit:10;}
	.st3{fill:#FFF3FF;stroke:#FF0009;stroke-width:4;stroke-miterlimit:10;}
	.st4{fill:none;stroke:#000000;stroke-width:4;stroke-miterlimit:10;}
	.st5{fill:#FF000E;stroke:#FC0000;stroke-width:4;stroke-miterlimit:10;}
	.st6{fill:none;stroke:#FC0000;stroke-width:4;stroke-miterlimit:10;}
</style>
<g id="Layer_1_00000178892790174784637900000011226435819909219249_">
	<path class="st0" d="M990,545.6H315c-55,0-100-45-100-100v-251c0-55,45-100,100-100h675c55,0,100,45,100,100v251
		C1090,500.6,1045,545.6,990,545.6z"/>
	<path class="st0" d="M276.5,537.6L276.5,537.6c0.8,0,1.5-0.7,1.5-1.5v-433c0-0.8-0.7-1.5-1.5-1.5l0,0c-0.8,0-1.5,0.7-1.5,1.5v433
		C275,536.9,275.7,537.6,276.5,537.6z"/>
	<path class="st0" d="M1003,544.6L1003,544.6c-0.6,0-1-0.5-1-1v-448c0-0.5,0.4-1,1-1l0,0c0.6,0,1,0.5,1,1v448
		C1004,544.1,1003.6,544.6,1003,544.6z"/>
	<path class="st1" d="M643,545.6L643,545.6c1.7,0,3-1.3,3-3v-445c0-1.6-1.3-3-3-3l0,0c-1.7,0-3,1.4-3,3v445
		C640,544.3,641.3,545.6,643,545.6z"/>
	<path class="st2" d="M735,544.6L735,544.6c1.1,0,2-0.9,2-2v-446c0-1.1-0.9-2-2-2l0,0c-1.1,0-2,0.9-2,2v446
		C733,543.7,733.9,544.6,735,544.6z"/>
	<path class="st2" d="M539,545.6L539,545.6c-1.1,0-2-0.9-2-2v-446c0-1.1,0.9-2,2-2l0,0c1.1,0,2,0.9,2,2v446
		C541,544.7,540.1,545.6,539,545.6z"/>
	<path class="st3" d="M643,366.6L643,366.6c-28.6,0-52-23.4-52-52v-6c0-28.6,23.4-52,52-52l0,0c28.6,0,52,23.4,52,52v6
		C695,343.2,671.6,366.6,643,366.6z"/>
</g>
<path class="st0" d="M641.2,311.3"/>
<line class="st4" x1="628.8" y1="300.6" x2="641.2" y2="320.6"/>
<line class="st4" x1="641.2" y1="302.8" x2="626.6" y2="319.6"/>
<line class="st4" x1="620.9" y1="198.5" x2="640" y2="210.3"/>
<line class="st4" x1="635" y1="193.7" x2="622.2" y2="214.3"/>
<line class="st4" x1="620.9" y1="396.1" x2="635" y2="410.5"/>
<line class="st4" x1="633.9" y1="392.1" x2="618.3" y2="413.6"/>
<line class="st4" x1="476.1" y1="247.9" x2="495.9" y2="267.6"/>
<line class="st4" x1="495.4" y1="249" x2="474.4" y2="268.7"/>
<line class="st4" x1="477.2" y1="350.5" x2="495.6" y2="368.3"/>
<line class="st4" x1="494.8" y1="350.5" x2="477.2" y2="368.5"/>
<line class="st4" x1="296" y1="302.3" x2="321.7" y2="317.3"/>
<line class="st4" x1="314.2" y1="297.3" x2="300" y2="321.2"/>
<line class="st5" x1="274.4" y1="284.1" x2="253.6" y2="284.8"/>
<line class="st6" x1="254.1" y1="337.7" x2="273.8" y2="337.7"/>
<line class="st6" x1="253.8" y1="283.7" x2="254.7" y2="341.3"/>
</svg>
