<?xml version="1.0" encoding="utf-8"?>
<!-- Generator: Adobe Illustrator 27.5.0, SVG Export Plug-In . SVG Version: 6.00 Build 0)  -->
<svg version="1.1" xmlns="http://www.w3.org/2000/svg" xmlns:xlink="http://www.w3.org/1999/xlink" x="0px" y="0px"
	 viewBox="0 0 1280 1024" style="enable-background:new 0 0 1280 1024;" xml:space="preserve">
<style type="text/css">
	.st0{fill:#FFFFFF;stroke:#000000;stroke-width:4;stroke-miterlimit:10;}
	.st1{fill:#EB0009;stroke:#F40000;stroke-width:4;stroke-miterlimit:10;}
	.st2{fill:#000E73;stroke:#1600FF;stroke-width:4;stroke-miterlimit:10;}
	.st3{fill:#FFF3FF;stroke:#FF0009;stroke-width:4;stroke-miterlimit:10;}
	.st4{fill:#40FF00;stroke:#00FF24;stroke-width:4;stroke-miterlimit:10;}
	.st5{fill:none;stroke:#00FF24;stroke-width:4;stroke-miterlimit:10;}
</style>
<g id="Layer_1">
	<g id="Layer_1_00000178892790174784637900000011226435819909219249_">
		<path class="st0" d="M990,545.6H315c-55,0-100-45-100-100v-251c0-55,45-100,100-100h675c55,0,100,45,100,100v251
			C1090,500.6,1045,545.6,990,545.6z"/>
		<path class="st0" d="M276.5,537.6L276.5,537.6c0.8,0,1.5-0.7,1.5-1.5v-433c0-0.8-0.7-1.5-1.5-1.5l0,0c-0.8,0-1.5,0.7-1.5,1.5v433
			C275,536.9,275.7,537.6,276.5,537.6z"/>
		<path class="st0" d="M1003,544.6L1003,544.6c-0.6,0-1-0.5-1-1v-448c0-0.5,0.4-1,1-1l0,0c0.6,0,1,0.5,1,1v448
			C1004,544.1,1003.6,544.6,1003,544.6z"/>
		<path class="st1" d="M643,545.6L643,545.6c1.7,0,3-1.3,3-3v-445c0-1.6-1.3-3-3-3l0,0c-1.7,0-3,1.4-3,3v445
			C640,544.3,641.3,545.6,643,545.6z"/>
		<path class="st2" d="M735,544.6L735,544.6c1.1,0,2-0.9,2-2v-446c0-1.1-0.9-2-2-2l0,0c-1.1,0-2,0.9-2,2v446
			C733,543.7,733.9,544.6,735,544.6z"/>
		<path class="st2" d="M539,545.6L539,545.6c-1.1,0-2-0.9-2-2v-446c0-1.1,0.9-2,2-2l0,0c1.1,0,2,0.9,2,2v446
			C541,544.7,540.1,545.6,539,545.6z"/>
		<path class="st3" d="M643,366.6L643,366.6c-28.6,0-52-23.4-52-52v-6c0-28.6,23.4-52,52-52l0,0c28.6,0,52,23.4,52,52v6
			C695,343.2,671.6,366.6,643,366.6z"/>
	</g>
	<path class="st0" d="M641.2,311.3"/>
	<path class="st4" d="M615.7,322.2L615.7,322.2c-9.3,0-16.9-7.5-16.9-16.7v-1.9c0-9.2,7.6-16.7,16.9-16.7l0,0
		c9.3,0,16.9,7.5,16.9,16.7v1.9C632.7,314.7,625.1,322.2,615.7,322.2z"/>
</g>
<g id="Layer_2">
	<path class="st4" d="M615.7,436.9L615.7,436.9c-9.3,0-16.9-7.5-16.9-16.7v-1.9c0-9.2,7.6-16.7,16.9-16.7l0,0
		c9.3,0,16.9,7.5,16.9,16.7v1.9C632.7,429.4,625.1,436.9,615.7,436.9z"/>
	<line class="st5" x1="619.2" y1="305" x2="620.9" y2="315.2"/>
	<path class="st4" d="M615.7,228L615.7,228c-9.3,0-16.9-7.5-16.9-16.7v-1.9c0-9.2,7.6-16.7,16.9-16.7l0,0c9.3,0,16.9,7.5,16.9,16.7
		v1.9C632.7,220.5,625.1,228,615.7,228z"/>
	<path class="st4" d="M482.2,263.3L482.2,263.3c-9.3,0-16.9-7.5-16.9-16.7v-1.9c0-9.2,7.6-16.7,16.9-16.7l0,0
		c9.3,0,16.9,7.5,16.9,16.7v1.9C499.1,255.8,491.5,263.3,482.2,263.3z"/>
	<path class="st4" d="M482.2,378.7L482.2,378.7c-9.3,0-16.9-7.5-16.9-16.7v-1.9c0-9.2,7.6-16.7,16.9-16.7l0,0
		c9.3,0,16.9,7.5,16.9,16.7v1.9C499.1,371.2,491.5,378.7,482.2,378.7z"/>
	<path class="st4" d="M312.7,310.1L312.7,310.1c-9.3,0-16.9-7.5-16.9-16.7v-1.9c0-9.2,7.6-16.7,16.9-16.7l0,0
		c9.3,0,16.9,7.5,16.9,16.7v1.9C329.6,302.6,322,310.1,312.7,310.1z"/>
</g>
</svg>
